<?xml version="1.0" encoding="utf-8"?>
<!-- Generator: Adobe Illustrator 22.0.1, SVG Export Plug-In . SVG Version: 6.00 Build 0)  -->
<svg version="1.1" id="Layer_1" xmlns="http://www.w3.org/2000/svg" xmlns:xlink="http://www.w3.org/1999/xlink" x="0px" y="0px"
	 viewBox="0 0 301.3 301.9" style="enable-background:new 0 0 301.3 301.9;" xml:space="preserve">
<style type="text/css">
	.st0{fill:none;}
	.st1{fill:none;stroke:#000000;stroke-width:2;stroke-miterlimit:10;}
</style>
<g>
	<g>
		<g>
			<g>
				<g>
					<g>
						<rect x="-11" y="175.5" class="st0" width="30" height="26"/>
					</g>
					<rect x="2.9" y="177.4" width="3" height="4.8"/>
					<rect x="2.9" y="186.1" width="3" height="4.8"/>
					<rect x="2.9" y="194.7" width="3" height="4.8"/>
				</g>
			</g>
			<g>
				<g>
					<g>
						<rect x="-11" y="149.5" class="st0" width="30" height="26"/>
					</g>
					<rect x="2.9" y="151.4" width="3" height="4.8"/>
					<rect x="2.9" y="160.1" width="3" height="4.8"/>
					<rect x="2.9" y="168.7" width="3" height="4.8"/>
				</g>
			</g>
			<g>
				<g>
					<g>
						<rect x="-11" y="123.5" class="st0" width="30" height="26"/>
					</g>
					<rect x="2.9" y="125.4" width="3" height="4.8"/>
					<rect x="2.9" y="134.1" width="3" height="4.8"/>
					<rect x="2.9" y="142.7" width="3" height="4.8"/>
				</g>
			</g>
			<g>
				<g>
					<g>
						<rect x="-11" y="97.5" class="st0" width="30" height="26"/>
					</g>
					<rect x="2.9" y="99.4" width="3" height="4.8"/>
					<rect x="2.9" y="108.1" width="3" height="4.8"/>
					<rect x="2.9" y="116.7" width="3" height="4.8"/>
				</g>
			</g>
			<g>
				<g>
					<g>
						<rect x="-11" y="71.5" class="st0" width="30" height="26"/>
					</g>
					<rect x="2.9" y="73.4" width="3" height="4.8"/>
					<rect x="2.9" y="82.1" width="3" height="4.8"/>
					<rect x="2.9" y="90.7" width="3" height="4.8"/>
				</g>
			</g>
			<g>
				<g>
					<g>
						<rect x="-11" y="45.5" class="st0" width="30" height="26"/>
					</g>
					<rect x="2.9" y="47.4" width="3" height="4.8"/>
					<rect x="2.9" y="56.1" width="3" height="4.8"/>
					<rect x="2.9" y="64.7" width="3" height="4.8"/>
				</g>
			</g>
			<g>
				<g>
					<g>
						<rect x="-11" y="19.5" class="st0" width="30" height="26"/>
					</g>
					<rect x="2.9" y="21.4" width="3" height="4.8"/>
					<rect x="2.9" y="30.1" width="3" height="4.8"/>
					<rect x="2.9" y="38.7" width="3" height="4.8"/>
				</g>
			</g>
			<g>
				<g>
					<g>
						<rect x="19" y="-10.5" class="st0" width="26" height="30"/>
					</g>
					<rect x="38.3" y="3.4" width="4.8" height="3"/>
					<rect x="29.6" y="3.4" width="4.8" height="3"/>
					<rect x="21" y="3.4" width="4.8" height="3"/>
				</g>
			</g>
			<g>
				<g>
					<g>
						<rect x="45" y="-10.5" class="st0" width="26" height="30"/>
					</g>
					<rect x="64.3" y="3.4" width="4.8" height="3"/>
					<rect x="55.6" y="3.4" width="4.8" height="3"/>
					<rect x="47" y="3.4" width="4.8" height="3"/>
				</g>
			</g>
			<g>
				<g>
					<g>
						<rect x="71" y="-10.5" class="st0" width="26" height="30"/>
					</g>
					<rect x="90.3" y="3.4" width="4.8" height="3"/>
					<rect x="81.6" y="3.4" width="4.8" height="3"/>
					<rect x="73" y="3.4" width="4.8" height="3"/>
				</g>
			</g>
			<g>
				<g>
					<g>
						<rect x="97" y="-10.5" class="st0" width="26" height="30"/>
					</g>
					<rect x="116.3" y="3.4" width="4.8" height="3"/>
					<rect x="107.6" y="3.4" width="4.8" height="3"/>
					<rect x="99" y="3.4" width="4.8" height="3"/>
				</g>
			</g>
			<g>
				<g>
					<g>
						<rect x="123" y="-10.5" class="st0" width="26" height="30"/>
					</g>
					<rect x="142.3" y="3.4" width="4.8" height="3"/>
					<rect x="133.6" y="3.4" width="4.8" height="3"/>
					<rect x="125" y="3.4" width="4.8" height="3"/>
				</g>
			</g>
			<g>
				<g>
					<g>
						<rect x="149" y="-10.5" class="st0" width="26" height="30"/>
					</g>
					<rect x="168.3" y="3.4" width="4.8" height="3"/>
					<rect x="159.6" y="3.4" width="4.8" height="3"/>
					<rect x="151" y="3.4" width="4.8" height="3"/>
				</g>
			</g>
			<g>
				<g>
					<g>
						<rect x="175" y="-10.5" class="st0" width="26" height="30"/>
					</g>
					<rect x="194.3" y="3.4" width="4.8" height="3"/>
					<rect x="185.6" y="3.4" width="4.8" height="3"/>
					<rect x="177" y="3.4" width="4.8" height="3"/>
				</g>
			</g>
			<g>
				<g>
					<g>
						<rect x="201" y="19.5" class="st0" width="30" height="26"/>
					</g>
					<rect x="214.1" y="38.7" width="3" height="4.8"/>
					<rect x="214.1" y="30.1" width="3" height="4.8"/>
					<rect x="214.1" y="21.5" width="3" height="4.8"/>
				</g>
			</g>
			<g>
				<g>
					<g>
						<rect x="201" y="45.5" class="st0" width="30" height="26"/>
					</g>
					<rect x="214.1" y="64.7" width="3" height="4.8"/>
					<rect x="214.1" y="56.1" width="3" height="4.8"/>
					<rect x="214.1" y="47.5" width="3" height="4.8"/>
				</g>
			</g>
			<g>
				<g>
					<g>
						<rect x="201" y="71.5" class="st0" width="30" height="26"/>
					</g>
					<rect x="214.1" y="90.7" width="3" height="4.8"/>
					<rect x="214.1" y="82.1" width="3" height="4.8"/>
					<rect x="214.1" y="73.5" width="3" height="4.8"/>
				</g>
			</g>
			<g>
				<g>
					<g>
						<rect x="201" y="97.5" class="st0" width="30" height="26"/>
					</g>
					<rect x="214.1" y="116.7" width="3" height="4.8"/>
					<rect x="214.1" y="108.1" width="3" height="4.8"/>
					<rect x="214.1" y="99.5" width="3" height="4.8"/>
				</g>
			</g>
			<g>
				<g>
					<g>
						<rect x="201" y="123.5" class="st0" width="30" height="26"/>
					</g>
					<rect x="214.1" y="142.7" width="3" height="4.8"/>
					<rect x="214.1" y="134.1" width="3" height="4.8"/>
					<rect x="214.1" y="125.5" width="3" height="4.8"/>
				</g>
			</g>
			<g>
				<g>
					<g>
						<rect x="201" y="149.5" class="st0" width="30" height="26"/>
					</g>
					<rect x="214.1" y="168.7" width="3" height="4.8"/>
					<rect x="214.1" y="160.1" width="3" height="4.8"/>
					<rect x="214.1" y="151.5" width="3" height="4.8"/>
				</g>
			</g>
			<g>
				<g>
					<g>
						<rect x="201" y="175.5" class="st0" width="30" height="26"/>
					</g>
					<rect x="214.1" y="194.7" width="3" height="4.8"/>
					<rect x="214.1" y="186.1" width="3" height="4.8"/>
					<rect x="214.1" y="177.5" width="3" height="4.8"/>
				</g>
			</g>
			<g>
				<g>
					<g>
						<rect x="175" y="201.5" class="st0" width="26" height="30"/>
					</g>
					<rect x="176.9" y="214.6" width="4.8" height="3"/>
					<rect x="185.6" y="214.6" width="4.8" height="3"/>
					<rect x="194.2" y="214.6" width="4.8" height="3"/>
				</g>
			</g>
			<g>
				<g>
					<g>
						<rect x="149" y="201.5" class="st0" width="26" height="30"/>
					</g>
					<rect x="150.9" y="214.6" width="4.8" height="3"/>
					<rect x="159.6" y="214.6" width="4.8" height="3"/>
					<rect x="168.2" y="214.6" width="4.8" height="3"/>
				</g>
			</g>
			<g>
				<g>
					<g>
						<rect x="123" y="201.5" class="st0" width="26" height="30"/>
					</g>
					<rect x="124.9" y="214.6" width="4.8" height="3"/>
					<rect x="133.6" y="214.6" width="4.8" height="3"/>
					<rect x="142.2" y="214.6" width="4.8" height="3"/>
				</g>
			</g>
			<g>
				<g>
					<g>
						<rect x="97" y="201.5" class="st0" width="26" height="30"/>
					</g>
					<rect x="98.9" y="214.6" width="4.8" height="3"/>
					<rect x="107.6" y="214.6" width="4.8" height="3"/>
					<rect x="116.2" y="214.6" width="4.8" height="3"/>
				</g>
			</g>
			<g>
				<g>
					<g>
						<rect x="71" y="201.5" class="st0" width="26" height="30"/>
					</g>
					<rect x="72.9" y="214.6" width="4.8" height="3"/>
					<rect x="81.6" y="214.6" width="4.8" height="3"/>
					<rect x="90.2" y="214.6" width="4.8" height="3"/>
				</g>
			</g>
			<g>
				<g>
					<g>
						<rect x="45" y="201.5" class="st0" width="26" height="30"/>
					</g>
					<rect x="46.9" y="214.6" width="4.8" height="3"/>
					<rect x="55.6" y="214.6" width="4.8" height="3"/>
					<rect x="64.2" y="214.6" width="4.8" height="3"/>
				</g>
			</g>
			<g>
				<g>
					<g>
						<rect x="19" y="201.5" class="st0" width="26" height="30"/>
					</g>
					<rect x="20.9" y="214.6" width="4.8" height="3"/>
					<rect x="29.6" y="214.6" width="4.8" height="3"/>
					<rect x="38.2" y="214.6" width="4.8" height="3"/>
				</g>
			</g>
			<g>
				<rect x="2.7" y="12.4" width="3" height="5"/>
				<polygon points="2.7,3.4 2.7,8.4 5.7,8.4 5.7,6.4 7.7,6.4 7.7,3.4 				"/>
				<rect x="11.7" y="3.4" width="5" height="3"/>
			</g>
			<g>
				<rect x="203.1" y="3.2" width="5" height="3"/>
				<polygon points="217.1,3.2 212.1,3.2 212.1,6.2 214.1,6.2 214.1,8.2 217.1,8.2 				"/>
				<rect x="214.1" y="12.2" width="3" height="5"/>
			</g>
			<g>
				<rect x="214.3" y="203.6" width="3" height="5"/>
				<polygon points="217.3,217.6 217.3,212.6 214.3,212.6 214.3,214.6 212.3,214.6 212.3,217.6 				"/>
				<rect x="203.3" y="214.6" width="5" height="3"/>
			</g>
			<g>
				<rect x="11.9" y="214.8" width="5" height="3"/>
				<polygon points="2.9,217.8 7.9,217.8 7.9,214.8 5.9,214.8 5.9,212.8 2.9,212.8 				"/>
				<rect x="2.9" y="203.8" width="3" height="5"/>
			</g>
		</g>
	</g>
</g>
<rect x="131" y="131.5" class="st1" width="168" height="168"/>
<line class="st1" x1="216.2" y1="131.8" x2="131.2" y2="216.8"/>
<line class="st1" x1="206.3" y1="131.7" x2="131.2" y2="206.8"/>
<line class="st1" x1="196.9" y1="131.1" x2="131.2" y2="196.8"/>
<line class="st1" x1="186.4" y1="131.6" x2="131.2" y2="186.8"/>
<line class="st1" x1="176.3" y1="131.7" x2="131.2" y2="176.8"/>
<line class="st1" x1="166.3" y1="131.7" x2="131.2" y2="166.8"/>
<line class="st1" x1="156.4" y1="131.6" x2="131.2" y2="156.8"/>
<line class="st1" x1="146.5" y1="131.5" x2="131.2" y2="146.8"/>
<line class="st1" x1="136.4" y1="131.6" x2="131.2" y2="136.8"/>
<line class="st1" x1="216.2" y1="141.8" x2="142.6" y2="215.4"/>
<line class="st1" x1="216.2" y1="151.8" x2="152.1" y2="215.9"/>
<line class="st1" x1="216.2" y1="161.8" x2="162.4" y2="215.6"/>
<line class="st1" x1="216.2" y1="171.8" x2="171.1" y2="216.9"/>
<line class="st1" x1="216.2" y1="181.8" x2="181.2" y2="216.7"/>
<line class="st1" x1="216.2" y1="191.8" x2="191.9" y2="216.1"/>
<line class="st1" x1="216.2" y1="201.8" x2="201.7" y2="216.2"/>
<image style="overflow:visible;enable-background:new    ;" width="121" height="113" xlink:href="D13C3181.jpeg"  transform="matrix(0.2294 0 0 0.2294 -8034.8374 -8080.1104)">
</image>
</svg>
