<?xml version="1.0" encoding="utf-8"?>
<!-- Generator: Adobe Illustrator 22.0.1, SVG Export Plug-In . SVG Version: 6.00 Build 0)  -->
<svg version="1.1" id="Layer_1" xmlns="http://www.w3.org/2000/svg" xmlns:xlink="http://www.w3.org/1999/xlink" x="0px" y="0px"
	 viewBox="0 0 196 117.3" style="enable-background:new 0 0 196 117.3;" xml:space="preserve">
<style type="text/css">
	.st0{fill:none;stroke:#000000;stroke-width:2;stroke-miterlimit:10;}
	.st1{fill:none;}
	.st2{font-family:'ArialMT';}
	.st3{font-size:23px;}
</style>
<circle class="st0" cx="34.7" cy="72.6" r="30.2"/>
<path class="st0" d="M71.3,49.3c32.3-32.3,76.5-30.7,97.8-9.5"/>
<path class="st0" d="M72.7,86.8c0,0,19,19,45-1.8"/>
<line class="st0" x1="56.1" y1="51.9" x2="13.4" y2="94.6"/>
<line class="st0" x1="50.3" y1="46.9" x2="8.6" y2="88.7"/>
<line class="st0" x1="42.8" y1="43.6" x2="5.3" y2="81.1"/>
<line class="st0" x1="32.5" y1="43.1" x2="4.6" y2="71"/>
<line class="st0" x1="61.2" y1="57.5" x2="20.4" y2="98.4"/>
<line class="st0" x1="64.2" y1="65.3" x2="27.7" y2="101.9"/>
<line class="st0" x1="64.3" y1="76" x2="37.4" y2="102.9"/>
<circle class="st0" cx="179.9" cy="50.6" r="12.9"/>
<circle class="st0" cx="129.7" cy="75" r="12.9"/>
<rect x="119.9" y="2.8" class="st1" width="87" height="58"/>
<text transform="matrix(1 0 0 1 119.9166 19.117)" class="st2 st3">2</text>
<rect x="121.5" y="66.4" class="st1" width="112.7" height="81"/>
<text transform="matrix(1 0 0 1 88.5831 116.1171)" class="st2 st3">1</text>
<g>
	<line class="st0" x1="71.8" y1="84.7" x2="73.1" y2="93.8"/>
	<line class="st0" x1="71.2" y1="85.8" x2="80.4" y2="84.5"/>
</g>
<g>
	<line class="st0" x1="69.7" y1="50.4" x2="78.8" y2="51.6"/>
	<line class="st0" x1="70.6" y1="51.5" x2="71.7" y2="42.3"/>
</g>
</svg>
