<?xml version="1.0" encoding="utf-8"?>
<!-- Generator: Adobe Illustrator 22.0.1, SVG Export Plug-In . SVG Version: 6.00 Build 0)  -->
<svg version="1.1" id="Layer_1" xmlns="http://www.w3.org/2000/svg" xmlns:xlink="http://www.w3.org/1999/xlink" x="0px" y="0px"
	 viewBox="0 0 301.3 112.6" style="enable-background:new 0 0 301.3 112.6;" xml:space="preserve">
<style type="text/css">
	.st0{fill:none;stroke:#000000;stroke-width:2;stroke-miterlimit:10;}
	.st1{fill:none;}
	.st2{font-family:'MyriadPro-Regular';}
	.st3{font-size:23px;}
</style>
<g>
	<g>
		<circle class="st0" cx="34.7" cy="79.3" r="30.2"/>
		<path class="st0" d="M71.3,56c65.3-38,134.4-41.3,196.8-15.1"/>
		<path class="st0" d="M72.7,93.5c0,0,43.4,24.5,89.3-1.8"/>
	</g>
	<line class="st0" x1="56.1" y1="58.6" x2="13.4" y2="101.3"/>
	<line class="st0" x1="50.3" y1="53.6" x2="8.6" y2="95.4"/>
	<line class="st0" x1="42.8" y1="50.3" x2="5.3" y2="87.8"/>
	<line class="st0" x1="32.5" y1="49.8" x2="4.6" y2="77.7"/>
	<line class="st0" x1="61.2" y1="64.2" x2="20.4" y2="105.1"/>
	<line class="st0" x1="64.2" y1="72" x2="27.7" y2="108.6"/>
	<line class="st0" x1="64.3" y1="82.7" x2="37.4" y2="109.6"/>
	<circle class="st0" cx="283.9" cy="46.3" r="12.9"/>
	<circle class="st0" cx="174.7" cy="82.7" r="12.9"/>
	<rect x="170.6" y="1.8" class="st1" width="87" height="58"/>
	<text transform="matrix(1 0 0 1 170.5833 18.117)" class="st2 st3">2</text>
	<rect x="110.2" y="71.1" class="st1" width="112.7" height="81"/>
	<text transform="matrix(1 0 0 1 110.2498 87.4505)" class="st2 st3">1</text>
	<g>
		<line class="st0" x1="71.8" y1="91.4" x2="73.1" y2="100.5"/>
		<line class="st0" x1="71.2" y1="92.5" x2="80.4" y2="91.2"/>
	</g>
	<g>
		<line class="st0" x1="69.7" y1="57.1" x2="78.8" y2="58.3"/>
		<line class="st0" x1="70.6" y1="58.2" x2="71.7" y2="49"/>
	</g>
</g>
</svg>
