<?xml version="1.0" encoding="utf-8"?>
<!-- Generator: Adobe Illustrator 22.0.1, SVG Export Plug-In . SVG Version: 6.00 Build 0)  -->
<svg version="1.1" id="Layer_1" xmlns="http://www.w3.org/2000/svg" xmlns:xlink="http://www.w3.org/1999/xlink" x="0px" y="0px"
	 viewBox="0 0 218.6 216.9" style="enable-background:new 0 0 218.6 216.9;" xml:space="preserve">
<style type="text/css">
	.st0{fill:none;}
	.st1{fill:none;stroke:#000000;stroke-width:2;stroke-miterlimit:10;}
</style>
<g>
	<g>
		<g>
			<g>
				<g>
					<g>
						<rect x="-11.5" y="173" class="st0" width="30" height="26"/>
					</g>
					<rect x="2.4" y="174.9" width="3" height="4.8"/>
					<rect x="2.4" y="183.6" width="3" height="4.8"/>
					<rect x="2.4" y="192.2" width="3" height="4.8"/>
				</g>
			</g>
			<g>
				<g>
					<g>
						<rect x="-11.5" y="147" class="st0" width="30" height="26"/>
					</g>
					<rect x="2.4" y="148.9" width="3" height="4.8"/>
					<rect x="2.4" y="157.6" width="3" height="4.8"/>
					<rect x="2.4" y="166.2" width="3" height="4.8"/>
				</g>
			</g>
			<g>
				<g>
					<g>
						<rect x="-11.5" y="121" class="st0" width="30" height="26"/>
					</g>
					<rect x="2.4" y="122.9" width="3" height="4.8"/>
					<rect x="2.4" y="131.6" width="3" height="4.8"/>
					<rect x="2.4" y="140.2" width="3" height="4.8"/>
				</g>
			</g>
			<g>
				<g>
					<g>
						<rect x="-11.5" y="95" class="st0" width="30" height="26"/>
					</g>
					<rect x="2.4" y="96.9" width="3" height="4.8"/>
					<rect x="2.4" y="105.6" width="3" height="4.8"/>
					<rect x="2.4" y="114.2" width="3" height="4.8"/>
				</g>
			</g>
			<g>
				<g>
					<g>
						<rect x="-11.5" y="69" class="st0" width="30" height="26"/>
					</g>
					<rect x="2.4" y="70.9" width="3" height="4.8"/>
					<rect x="2.4" y="79.6" width="3" height="4.8"/>
					<rect x="2.4" y="88.2" width="3" height="4.8"/>
				</g>
			</g>
			<g>
				<g>
					<g>
						<rect x="-11.5" y="43" class="st0" width="30" height="26"/>
					</g>
					<rect x="2.4" y="44.9" width="3" height="4.8"/>
					<rect x="2.4" y="53.6" width="3" height="4.8"/>
					<rect x="2.4" y="62.2" width="3" height="4.8"/>
				</g>
			</g>
			<g>
				<g>
					<g>
						<rect x="-11.5" y="17" class="st0" width="30" height="26"/>
					</g>
					<rect x="2.4" y="18.9" width="3" height="4.8"/>
					<rect x="2.4" y="27.6" width="3" height="4.8"/>
					<rect x="2.4" y="36.2" width="3" height="4.8"/>
				</g>
			</g>
			<g>
				<g>
					<g>
						<rect x="18.5" y="-13" class="st0" width="26" height="30"/>
					</g>
					<rect x="37.8" y="0.9" width="4.8" height="3"/>
					<rect x="29.1" y="0.9" width="4.8" height="3"/>
					<rect x="20.5" y="0.9" width="4.8" height="3"/>
				</g>
			</g>
			<g>
				<g>
					<g>
						<rect x="44.5" y="-13" class="st0" width="26" height="30"/>
					</g>
					<rect x="63.8" y="0.9" width="4.8" height="3"/>
					<rect x="55.1" y="0.9" width="4.8" height="3"/>
					<rect x="46.5" y="0.9" width="4.8" height="3"/>
				</g>
			</g>
			<g>
				<g>
					<g>
						<rect x="70.5" y="-13" class="st0" width="26" height="30"/>
					</g>
					<rect x="89.8" y="0.9" width="4.8" height="3"/>
					<rect x="81.1" y="0.9" width="4.8" height="3"/>
					<rect x="72.5" y="0.9" width="4.8" height="3"/>
				</g>
			</g>
			<g>
				<g>
					<g>
						<rect x="96.5" y="-13" class="st0" width="26" height="30"/>
					</g>
					<rect x="115.8" y="0.9" width="4.8" height="3"/>
					<rect x="107.1" y="0.9" width="4.8" height="3"/>
					<rect x="98.5" y="0.9" width="4.8" height="3"/>
				</g>
			</g>
			<g>
				<g>
					<g>
						<rect x="122.5" y="-13" class="st0" width="26" height="30"/>
					</g>
					<rect x="141.8" y="0.9" width="4.8" height="3"/>
					<rect x="133.1" y="0.9" width="4.8" height="3"/>
					<rect x="124.5" y="0.9" width="4.8" height="3"/>
				</g>
			</g>
			<g>
				<g>
					<g>
						<rect x="148.5" y="-13" class="st0" width="26" height="30"/>
					</g>
					<rect x="167.8" y="0.9" width="4.8" height="3"/>
					<rect x="159.1" y="0.9" width="4.8" height="3"/>
					<rect x="150.5" y="0.9" width="4.8" height="3"/>
				</g>
			</g>
			<g>
				<g>
					<g>
						<rect x="174.5" y="-13" class="st0" width="26" height="30"/>
					</g>
					<rect x="193.8" y="0.9" width="4.8" height="3"/>
					<rect x="185.1" y="0.9" width="4.8" height="3"/>
					<rect x="176.5" y="0.9" width="4.8" height="3"/>
				</g>
			</g>
			<g>
				<g>
					<g>
						<rect x="200.5" y="17" class="st0" width="30" height="26"/>
					</g>
					<rect x="213.6" y="36.2" width="3" height="4.8"/>
					<rect x="213.6" y="27.6" width="3" height="4.8"/>
					<rect x="213.6" y="19" width="3" height="4.8"/>
				</g>
			</g>
			<g>
				<g>
					<g>
						<rect x="200.5" y="43" class="st0" width="30" height="26"/>
					</g>
					<rect x="213.6" y="62.2" width="3" height="4.8"/>
					<rect x="213.6" y="53.6" width="3" height="4.8"/>
					<rect x="213.6" y="45" width="3" height="4.8"/>
				</g>
			</g>
			<g>
				<g>
					<g>
						<rect x="200.5" y="69" class="st0" width="30" height="26"/>
					</g>
					<rect x="213.6" y="88.2" width="3" height="4.8"/>
					<rect x="213.6" y="79.6" width="3" height="4.8"/>
					<rect x="213.6" y="71" width="3" height="4.8"/>
				</g>
			</g>
			<g>
				<g>
					<g>
						<rect x="200.5" y="95" class="st0" width="30" height="26"/>
					</g>
					<rect x="213.6" y="114.2" width="3" height="4.8"/>
					<rect x="213.6" y="105.6" width="3" height="4.8"/>
					<rect x="213.6" y="97" width="3" height="4.8"/>
				</g>
			</g>
			<g>
				<g>
					<g>
						<rect x="200.5" y="121" class="st0" width="30" height="26"/>
					</g>
					<rect x="213.6" y="140.2" width="3" height="4.8"/>
					<rect x="213.6" y="131.6" width="3" height="4.8"/>
					<rect x="213.6" y="123" width="3" height="4.8"/>
				</g>
			</g>
			<g>
				<g>
					<g>
						<rect x="200.5" y="147" class="st0" width="30" height="26"/>
					</g>
					<rect x="213.6" y="166.2" width="3" height="4.8"/>
					<rect x="213.6" y="157.6" width="3" height="4.8"/>
					<rect x="213.6" y="149" width="3" height="4.8"/>
				</g>
			</g>
			<g>
				<g>
					<g>
						<rect x="200.5" y="173" class="st0" width="30" height="26"/>
					</g>
					<rect x="213.6" y="192.2" width="3" height="4.8"/>
					<rect x="213.6" y="183.6" width="3" height="4.8"/>
					<rect x="213.6" y="175" width="3" height="4.8"/>
				</g>
			</g>
			<g>
				<g>
					<g>
						<rect x="174.5" y="199" class="st0" width="26" height="30"/>
					</g>
					<rect x="176.4" y="212" width="4.8" height="3"/>
					<rect x="185.1" y="212" width="4.8" height="3"/>
					<rect x="193.7" y="212" width="4.8" height="3"/>
				</g>
			</g>
			<g>
				<g>
					<g>
						<rect x="148.5" y="199" class="st0" width="26" height="30"/>
					</g>
					<rect x="150.4" y="212" width="4.8" height="3"/>
					<rect x="159.1" y="212" width="4.8" height="3"/>
					<rect x="167.7" y="212" width="4.8" height="3"/>
				</g>
			</g>
			<g>
				<g>
					<g>
						<rect x="122.5" y="199" class="st0" width="26" height="30"/>
					</g>
					<rect x="124.4" y="212" width="4.8" height="3"/>
					<rect x="133.1" y="212" width="4.8" height="3"/>
					<rect x="141.7" y="212" width="4.8" height="3"/>
				</g>
			</g>
			<g>
				<g>
					<g>
						<rect x="96.5" y="199" class="st0" width="26" height="30"/>
					</g>
					<rect x="98.4" y="212" width="4.8" height="3"/>
					<rect x="107.1" y="212" width="4.8" height="3"/>
					<rect x="115.7" y="212" width="4.8" height="3"/>
				</g>
			</g>
			<g>
				<g>
					<g>
						<rect x="70.5" y="199" class="st0" width="26" height="30"/>
					</g>
					<rect x="72.4" y="212" width="4.8" height="3"/>
					<rect x="81.1" y="212" width="4.8" height="3"/>
					<rect x="89.7" y="212" width="4.8" height="3"/>
				</g>
			</g>
			<g>
				<g>
					<g>
						<rect x="44.5" y="199" class="st0" width="26" height="30"/>
					</g>
					<rect x="46.4" y="212" width="4.8" height="3"/>
					<rect x="55.1" y="212" width="4.8" height="3"/>
					<rect x="63.7" y="212" width="4.8" height="3"/>
				</g>
			</g>
			<g>
				<g>
					<g>
						<rect x="18.5" y="199" class="st0" width="26" height="30"/>
					</g>
					<rect x="20.4" y="212" width="4.8" height="3"/>
					<rect x="29.1" y="212" width="4.8" height="3"/>
					<rect x="37.7" y="212" width="4.8" height="3"/>
				</g>
			</g>
			<g>
				<rect x="2.2" y="9.9" width="3" height="5"/>
				<polygon points="2.2,0.9 2.2,5.9 5.2,5.9 5.2,3.9 7.2,3.9 7.2,0.9 				"/>
				<rect x="11.2" y="0.9" width="5" height="3"/>
			</g>
			<g>
				<rect x="202.6" y="0.7" width="5" height="3"/>
				<polygon points="216.6,0.7 211.6,0.7 211.6,3.7 213.6,3.7 213.6,5.7 216.6,5.7 				"/>
				<rect x="213.6" y="9.7" width="3" height="5"/>
			</g>
			<g>
				<rect x="213.8" y="201" width="3" height="5"/>
				<polygon points="216.8,215 216.8,210 213.8,210 213.8,212 211.8,212 211.8,215 				"/>
				<rect x="202.8" y="212" width="5" height="3"/>
			</g>
			<g>
				<rect x="11.4" y="212.2" width="5" height="3"/>
				<polygon points="2.4,215.3 7.4,215.3 7.4,212.2 5.4,212.2 5.4,210.3 2.4,210.3 				"/>
				<rect x="2.4" y="201.3" width="3" height="5"/>
			</g>
		</g>
	</g>
</g>
<rect x="26.5" y="22.5" class="st1" width="168" height="168"/>
<line class="st1" x1="26.5" y1="190.5" x2="194.2" y2="22.7"/>
<line class="st1" x1="26.5" y1="180.5" x2="184.8" y2="22.2"/>
<line class="st1" x1="26.5" y1="170.5" x2="174.2" y2="22.8"/>
<line class="st1" x1="26.5" y1="160.5" x2="164.2" y2="22.8"/>
<line class="st1" x1="26.5" y1="150.5" x2="154" y2="23"/>
<line class="st1" x1="26.5" y1="140.5" x2="144.7" y2="22.3"/>
<line class="st1" x1="26.5" y1="130.5" x2="134.3" y2="22.7"/>
<line class="st1" x1="26.5" y1="120.5" x2="124.3" y2="22.7"/>
<line class="st1" x1="26.5" y1="110.5" x2="114.2" y2="22.8"/>
<line class="st1" x1="26.5" y1="100.5" x2="104.5" y2="22.5"/>
<line class="st1" x1="26.5" y1="90.5" x2="94.3" y2="22.7"/>
<line class="st1" x1="26.5" y1="80.5" x2="84.2" y2="22.8"/>
<line class="st1" x1="26.5" y1="70.5" x2="74.3" y2="22.7"/>
<line class="st1" x1="26.5" y1="60.5" x2="64.3" y2="22.7"/>
<line class="st1" x1="26.5" y1="50.5" x2="54.2" y2="22.8"/>
<line class="st1" x1="26.5" y1="40.5" x2="44.2" y2="22.8"/>
<line class="st1" x1="26.5" y1="30.5" x2="34.3" y2="22.7"/>
<line class="st1" x1="36.6" y1="190.4" x2="194.2" y2="32.7"/>
<line class="st1" x1="46.5" y1="190.5" x2="194.2" y2="42.7"/>
<line class="st1" x1="56.4" y1="190.6" x2="194.2" y2="52.7"/>
<line class="st1" x1="66.5" y1="190.5" x2="194.2" y2="62.7"/>
<line class="st1" x1="76.9" y1="190.1" x2="194.2" y2="72.7"/>
<line class="st1" x1="86.2" y1="190.7" x2="194.2" y2="82.7"/>
<line class="st1" x1="96.3" y1="190.7" x2="194.2" y2="92.7"/>
<line class="st1" x1="106.4" y1="190.6" x2="194.2" y2="102.7"/>
<line class="st1" x1="116.4" y1="190.6" x2="194.2" y2="112.7"/>
<line class="st1" x1="126.2" y1="190.8" x2="194.2" y2="122.7"/>
<line class="st1" x1="136.5" y1="190.5" x2="194.2" y2="132.7"/>
<line class="st1" x1="146.5" y1="190.5" x2="194.2" y2="142.7"/>
<line class="st1" x1="156.7" y1="190.3" x2="194.2" y2="152.7"/>
<line class="st1" x1="166.2" y1="190.8" x2="194.2" y2="162.7"/>
<line class="st1" x1="176.2" y1="190.8" x2="194.2" y2="172.7"/>
<line class="st1" x1="186.3" y1="190.7" x2="194.2" y2="182.7"/>
</svg>
